<?xml version="1.0" encoding="utf-8"?>
<!-- Generated by Mocodo 4.2.8 -->
<svg width="496" height="296" viewBox="0 0 496 296" xmlns="http://www.w3.org/2000/svg">
<rect x="0" y="0" width="496" height="296" fill="#ffffbf" stroke="none" stroke-width="0"/>

<!-- Association PROGRESSE -->
<g>
	<line x1="200" y1="161" x2="315" y2="51" stroke="#f46d43" stroke-width="2"/>
	<line x1="433" y1="161" x2="315" y2="51" stroke="#f46d43" stroke-width="2"/>
	<g>
		<path d="M375 17 a14 14 90 0 1 14 14 V42 h-148 V31 a14 14 90 0 1 14 -14" fill="#fdae61" stroke="#fdae61" stroke-width="0"/>
		<path d="M389 42 v29 a14 14 90 0 1 -14 14 H255 a14 14 90 0 1 -14 -14 V42 H148" fill="#fee08b" stroke="#fee08b" stroke-width="0"/>
		<rect x="241" y="17" width="148" height="68" fill="none" rx="14" stroke="#f46d43" stroke-width="2"/>
		<line x1="241" y1="42" x2="389" y2="42" stroke="#f46d43" stroke-width="1"/>
		<text x="285" y="34.75" fill="#000000" font-family="Verdana" font-size="12">progresse</text>
		<text x="248" y="59.8" fill="#000000" font-family="Verdana" font-size="12">nb_cartes_présentées</text>
		<text x="248" y="76.8" fill="#000000" font-family="Verdana" font-size="12">nb_cartes_réussies</text>
	</g>
	<text x="223.76" y="111" fill="#1a9850" font-family="Verdana" font-size="12">0,N</text>
	<text x="352" y="120.94" fill="#1a9850" font-family="Verdana" font-size="12">0,N</text>
</g>

<!-- Association APPARTIENT -->
<g>
	<line x1="78" y1="51" x2="78" y2="161" stroke="#f46d43" stroke-width="2"/>
	<line x1="200" y1="161" x2="78" y2="161" stroke="#f46d43" stroke-width="2"/>
	<g>
		<path d="M103 136 a14 14 90 0 1 14 14 V161 h-78 V150 a14 14 90 0 1 14 -14" fill="#fdae61" stroke="#fdae61" stroke-width="0"/>
		<path d="M117 161 v11 a14 14 90 0 1 -14 14 H53 a14 14 90 0 1 -14 -14 V161 H78" fill="#fee08b" stroke="#fee08b" stroke-width="0"/>
		<rect x="39" y="136" width="78" height="50" fill="none" rx="14" stroke="#f46d43" stroke-width="2"/>
		<line x1="39" y1="161" x2="117" y2="161" stroke="#f46d43" stroke-width="1"/>
		<text x="47" y="153.75" fill="#000000" font-family="Verdana" font-size="12">appartient</text>
	</g>
	<text x="83" y="110" fill="#1a9850" font-family="Verdana" font-size="12">1,1</text>
	<text x="122" y="178" fill="#1a9850" font-family="Verdana" font-size="12">0,N</text>
</g>

<!-- Association POSSEDE -->
<g>
	<line x1="200" y1="161" x2="315" y2="161" stroke="#f46d43" stroke-width="2"/>
	<line x1="433" y1="161" x2="315" y2="161" stroke="#f46d43" stroke-width="2"/>
	<g>
		<path d="M333 136 a14 14 90 0 1 14 14 V161 h-64 V150 a14 14 90 0 1 14 -14" fill="#fdae61" stroke="#fdae61" stroke-width="0"/>
		<path d="M347 161 v11 a14 14 90 0 1 -14 14 H297 a14 14 90 0 1 -14 -14 V161 H64" fill="#fee08b" stroke="#fee08b" stroke-width="0"/>
		<rect x="283" y="136" width="64" height="50" fill="none" rx="14" stroke="#f46d43" stroke-width="2"/>
		<line x1="283" y1="161" x2="347" y2="161" stroke="#f46d43" stroke-width="1"/>
		<text x="290" y="153.75" fill="#000000" font-family="Verdana" font-size="12">possède</text>
	</g>
	<text x="256" y="178" fill="#1a9850" font-family="Verdana" font-size="12">1,1</text>
	<text x="352" y="178" fill="#1a9850" font-family="Verdana" font-size="12">0,N</text>
</g>

<!-- Association CONSULTE -->
<g>
	<line x1="200" y1="161" x2="315" y2="262" stroke="#f46d43" stroke-width="2"/>
	<line x1="433" y1="161" x2="315" y2="262" stroke="#f46d43" stroke-width="2"/>
	<g>
		<path d="M334 237 a14 14 90 0 1 14 14 V262 h-66 V251 a14 14 90 0 1 14 -14" fill="#fdae61" stroke="#fdae61" stroke-width="0"/>
		<path d="M348 262 v11 a14 14 90 0 1 -14 14 H296 a14 14 90 0 1 -14 -14 V262 H66" fill="#fee08b" stroke="#fee08b" stroke-width="0"/>
		<rect x="282" y="237" width="66" height="50" fill="none" rx="14" stroke="#f46d43" stroke-width="2"/>
		<line x1="282" y1="262" x2="348" y2="262" stroke="#f46d43" stroke-width="1"/>
		<text x="290" y="254.75" fill="#000000" font-family="Verdana" font-size="12">consulte</text>
	</g>
	<text x="227.25" y="220" fill="#1a9850" font-family="Verdana" font-size="12">0,N</text>
	<text x="352" y="205.52" fill="#1a9850" font-family="Verdana" font-size="12">0,N</text>
</g>

<!-- Entity CARTE_MEMOIRE -->
<g>
	<g>
		<rect x="9" y="9" width="138" height="25" fill="#a6d96a" stroke="none" stroke-width="0" opacity="1"/>
		<rect x="9" y="34" width="138" height="59" fill="#d9ef8b" stroke="none" stroke-width="0" opacity="1"/>
		<rect x="9" y="9" width="138" height="84" fill="none" stroke="#66bd63" stroke-width="2" opacity="1"/>
		<line x1="9" y1="34" x2="147" y2="34" stroke="#66bd63" stroke-width="1"/>
	</g>
	<text x="32" y="26.75" fill="#000000" font-family="Verdana" font-size="12">carte_mémoire</text>
	<text x="14" y="51.8" fill="#000000" font-family="Verdana" font-size="12">code_carte_mémoire</text>
	<line x1="14" y1="54" x2="142" y2="54" stroke="#000000" stroke-width="1"/>
	<text x="14" y="68.8" fill="#000000" font-family="Verdana" font-size="12">tire_recto</text>
	<text x="14" y="85.8" fill="#000000" font-family="Verdana" font-size="12">titre_verso</text>
</g>

<!-- Entity DECK_DE_CARTE -->
<g>
	<g>
		<rect x="149" y="119" width="102" height="25" fill="#a6d96a" stroke="none" stroke-width="0" opacity="1"/>
		<rect x="149" y="144" width="102" height="59" fill="#d9ef8b" stroke="none" stroke-width="0" opacity="1"/>
		<rect x="149" y="119" width="102" height="84" fill="none" stroke="#66bd63" stroke-width="2" opacity="1"/>
		<line x1="149" y1="144" x2="251" y2="144" stroke="#66bd63" stroke-width="1"/>
	</g>
	<text x="155" y="136.75" fill="#000000" font-family="Verdana" font-size="12">Deck_de_carte</text>
	<text x="154" y="161.8" fill="#000000" font-family="Verdana" font-size="12">code_deck</text>
	<line x1="154" y1="164" x2="219" y2="164" stroke="#000000" stroke-width="1"/>
	<text x="154" y="178.8" fill="#000000" font-family="Verdana" font-size="12">titre</text>
	<text x="154" y="195.8" fill="#000000" font-family="Verdana" font-size="12">code_partage</text>
</g>

<!-- Entity UTILISATEUR -->
<g>
	<g>
		<rect x="379" y="110" width="108" height="25" fill="#a6d96a" stroke="none" stroke-width="0" opacity="1"/>
		<rect x="379" y="135" width="108" height="77" fill="#d9ef8b" stroke="none" stroke-width="0" opacity="1"/>
		<rect x="379" y="110" width="108" height="102" fill="none" stroke="#66bd63" stroke-width="2" opacity="1"/>
		<line x1="379" y1="135" x2="487" y2="135" stroke="#66bd63" stroke-width="1"/>
	</g>
	<text x="402" y="127.75" fill="#000000" font-family="Verdana" font-size="12">Utilisateur</text>
	<text x="384" y="152.8" fill="#000000" font-family="Verdana" font-size="12">code_utilisateur</text>
	<line x1="384" y1="155" x2="481" y2="155" stroke="#000000" stroke-width="1"/>
	<text x="384" y="169.8" fill="#000000" font-family="Verdana" font-size="12">pseudo</text>
	<text x="384" y="186.8" fill="#000000" font-family="Verdana" font-size="12">email</text>
	<text x="384" y="203.8" fill="#000000" font-family="Verdana" font-size="12">mot_de_passe</text>
</g>
</svg>